<svg width="34" height="34" viewBox="0 0 34 34" fill="none" xmlns="http://www.w3.org/2000/svg">
<path d="M26.2129 15.8557H9.90543L14.8967 9.86074C15.1301 9.57994 15.2424 9.21793 15.2088 8.85435C15.1753 8.49076 14.9987 8.15538 14.7179 7.92199C14.4371 7.6886 14.0751 7.57632 13.7115 7.60984C13.3479 7.64336 13.0126 7.81994 12.7792 8.10074L5.90418 16.3507C5.85792 16.4164 5.81656 16.4853 5.78043 16.557C5.78043 16.6257 5.78043 16.667 5.68418 16.7357C5.62186 16.8934 5.58922 17.0612 5.58793 17.2307C5.58922 17.4003 5.62186 17.5681 5.68418 17.7257C5.68418 17.7945 5.68418 17.8357 5.78043 17.9045C5.81656 17.9762 5.85792 18.0451 5.90418 18.1107L12.7792 26.3607C12.9085 26.516 13.0704 26.6408 13.2533 26.7263C13.4363 26.8119 13.6359 26.8561 13.8379 26.8557C14.1592 26.8564 14.4706 26.7445 14.7179 26.5395C14.8572 26.4241 14.9722 26.2823 15.0566 26.1223C15.141 25.9623 15.1929 25.7873 15.2095 25.6072C15.2261 25.4271 15.2071 25.2455 15.1534 25.0728C15.0997 24.9001 15.0125 24.7397 14.8967 24.6007L9.90543 18.6057H26.2129C26.5776 18.6057 26.9273 18.4609 27.1852 18.203C27.4431 17.9451 27.5879 17.5954 27.5879 17.2307C27.5879 16.8661 27.4431 16.5163 27.1852 16.2585C26.9273 16.0006 26.5776 15.8557 26.2129 15.8557Z" fill="#231F20"/>
</svg>
