<svg width="21" height="19" viewBox="0 0 21 19" fill="none" xmlns="http://www.w3.org/2000/svg">
<path d="M17.4302 6.24073C16.8034 6.2425 16.1926 6.43807 15.6814 6.80065C15.1701 7.16322 14.7835 7.67505 14.5746 8.26596H1.22843C0.95987 8.26596 0.702308 8.37264 0.512407 8.56254C0.322506 8.75244 0.21582 9.01 0.21582 9.27857C0.21582 9.54713 0.322506 9.80469 0.512407 9.99459C0.702308 10.1845 0.95987 10.2912 1.22843 10.2912H14.5746C14.7604 10.8166 15.0871 11.2808 15.519 11.633C15.951 11.9851 16.4714 12.2117 17.0235 12.2879C17.5756 12.364 18.1379 12.2869 18.6491 12.0649C19.1602 11.8428 19.6005 11.4844 19.9216 11.029C20.2427 10.5735 20.4323 10.0384 20.4697 9.4824C20.5071 8.92637 20.3908 8.37076 20.1336 7.87638C19.8764 7.382 19.4881 6.96791 19.0113 6.67942C18.5345 6.39094 17.9875 6.23917 17.4302 6.24073ZM17.4302 10.2912C17.2299 10.2912 17.0341 10.2318 16.8676 10.1205C16.7011 10.0093 16.5713 9.85111 16.4947 9.66608C16.418 9.48104 16.398 9.27744 16.437 9.08102C16.4761 8.88459 16.5726 8.70416 16.7142 8.56254C16.8558 8.42093 17.0362 8.32448 17.2326 8.28541C17.4291 8.24634 17.6327 8.26639 17.8177 8.34304C18.0027 8.41968 18.1609 8.54947 18.2722 8.71599C18.3834 8.88251 18.4428 9.07829 18.4428 9.27857C18.4428 9.54713 18.3361 9.80469 18.1462 9.99459C17.9563 10.1845 17.6988 10.2912 17.4302 10.2912Z" fill="#231F20"/>
<path d="M1.22843 4.21546H2.42331C2.63617 4.80192 3.02443 5.30862 3.53532 5.66669C4.04622 6.02477 4.65498 6.21686 5.27887 6.21686C5.90276 6.21686 6.51152 6.02477 7.02242 5.66669C7.53332 5.30862 7.92158 4.80192 8.13443 4.21546H19.4554C19.724 4.21546 19.9815 4.10878 20.1714 3.91888C20.3613 3.72898 20.468 3.47141 20.468 3.20285C20.468 2.93429 20.3613 2.67673 20.1714 2.48683C19.9815 2.29693 19.724 2.19024 19.4554 2.19024H8.13443C7.92158 1.60379 7.53332 1.09709 7.02242 0.739012C6.51152 0.380935 5.90276 0.188843 5.27887 0.188843C4.65498 0.188843 4.04622 0.380935 3.53532 0.739012C3.02443 1.09709 2.63617 1.60379 2.42331 2.19024H1.22843C0.95987 2.19024 0.702308 2.29693 0.512407 2.48683C0.322506 2.67673 0.21582 2.93429 0.21582 3.20285C0.21582 3.47141 0.322506 3.72898 0.512407 3.91888C0.702308 4.10878 0.95987 4.21546 1.22843 4.21546ZM5.27887 2.19024C5.47915 2.19024 5.67492 2.24963 5.84145 2.3609C6.00797 2.47217 6.13776 2.63031 6.2144 2.81534C6.29104 3.00037 6.3111 3.20398 6.27202 3.4004C6.23295 3.59683 6.13651 3.77726 5.99489 3.91888C5.85328 4.06049 5.67285 4.15693 5.47642 4.19601C5.27999 4.23508 5.07639 4.21503 4.89136 4.13838C4.70633 4.06174 4.54818 3.93195 4.43692 3.76543C4.32565 3.59891 4.26626 3.40313 4.26626 3.20285C4.26626 2.93429 4.37295 2.67673 4.56285 2.48683C4.75275 2.29693 5.01031 2.19024 5.27887 2.19024Z" fill="#231F20"/>
<path d="M19.4554 14.3416H12.1849C11.972 13.7552 11.5838 13.2485 11.0729 12.8904C10.562 12.5323 9.9532 12.3402 9.32931 12.3402C8.70542 12.3402 8.09666 12.5323 7.58576 12.8904C7.07487 13.2485 6.68661 13.7552 6.47375 14.3416H1.22843C0.95987 14.3416 0.702308 14.4483 0.512407 14.6382C0.322506 14.8281 0.21582 15.0857 0.21582 15.3542C0.21582 15.6228 0.322506 15.8803 0.512407 16.0702C0.702308 16.2601 0.95987 16.3668 1.22843 16.3668H6.47375C6.68661 16.9533 7.07487 17.46 7.58576 17.8181C8.09666 18.1761 8.70542 18.3682 9.32931 18.3682C9.9532 18.3682 10.562 18.1761 11.0729 17.8181C11.5838 17.46 11.972 16.9533 12.1849 16.3668H19.4554C19.724 16.3668 19.9815 16.2601 20.1714 16.0702C20.3613 15.8803 20.468 15.6228 20.468 15.3542C20.468 15.0857 20.3613 14.8281 20.1714 14.6382C19.9815 14.4483 19.724 14.3416 19.4554 14.3416ZM9.32931 16.3668C9.12904 16.3668 8.93326 16.3074 8.76674 16.1962C8.60021 16.0849 8.47042 15.9268 8.39378 15.7417C8.31714 15.5567 8.29709 15.3531 8.33616 15.1567C8.37523 14.9602 8.47167 14.7798 8.61329 14.6382C8.7549 14.4966 8.93533 14.4001 9.13176 14.3611C9.32819 14.322 9.53179 14.342 9.71682 14.4187C9.90185 14.4953 10.06 14.6251 10.1713 14.7916C10.2825 14.9582 10.3419 15.1539 10.3419 15.3542C10.3419 15.6228 10.2352 15.8803 10.0453 16.0702C9.85543 16.2601 9.59787 16.3668 9.32931 16.3668Z" fill="#231F20"/>
</svg>
